<svg width="106" height="97" viewBox="0 0 106 97" fill="none" xmlns="http://www.w3.org/2000/svg">
<path fill-rule="evenodd" clip-rule="evenodd" d="M14.397 14.397L12.0854 16.7086L7.4589 12.0854L9.77052 9.77373C12.8859 6.65836 16.5768 4.21492 20.6084 2.54631C24.6305 0.880922 28.9611 0 33.3657 0C42.58 0 50.9199 3.73588 56.9577 9.77373C62.2754 15.0914 65.8055 22.1934 66.5739 30.1057H70.1683C70.9817 30.0478 71.8048 30.0156 72.6375 30.0156H75.9072V36.5583H75.4314V36.6097H70.9399C69.4224 36.7029 67.9435 36.9248 66.5032 37.2624C65.6126 44.9206 62.1307 51.7879 56.9545 56.9609C53.8038 60.1117 50.0261 62.6355 45.824 64.3266C46.0684 71.3579 49.0166 77.7012 53.6623 82.3469C58.517 87.2016 65.2236 90.2045 72.6311 90.2045C80.0385 90.2045 86.7451 87.2016 91.5998 82.3469C96.4545 77.4922 99.4574 70.7856 99.4574 63.3782V60.1085H106V63.3782C106 72.5925 102.264 80.9323 96.2263 86.9702C90.1884 93.008 81.8454 96.7439 72.6343 96.7439C63.42 96.7439 55.0801 93.008 49.0423 86.9702C43.6249 81.5528 40.0627 74.2804 39.3875 66.1881C37.4328 66.545 35.4234 66.7315 33.3657 66.7315C24.1514 66.7315 15.8116 62.9956 9.77373 56.9577C3.73588 50.9199 0 42.58 0 33.3657V30.096H6.54261V30.1057H59.9927C59.2533 24.0035 56.4626 18.5315 52.3345 14.4002C47.4798 9.54547 40.7732 6.54261 33.3657 6.54261C29.7906 6.54261 26.3023 7.24671 23.0872 8.57774C19.885 9.90555 16.9272 11.8699 14.397 14.397ZM59.3433 40.0755C57.2599 41.2651 55.3534 42.7279 53.6687 44.4126C50.3315 47.7498 47.872 51.9583 46.6567 56.6716C48.7401 55.482 50.6466 54.0192 52.3313 52.3345C55.6685 48.9973 58.1312 44.7888 59.3433 40.0755ZM39.4968 59.4847C40.3874 51.8265 43.8693 44.9592 49.0455 39.7862C50.1901 38.6416 51.4214 37.5774 52.7203 36.6065H6.73552C7.47176 42.7183 10.2624 48.1967 14.397 52.3313C19.2517 57.186 25.9583 60.1888 33.3657 60.1888C35.4748 60.1888 37.526 59.9477 39.4968 59.4847Z" fill="#808285"/>
<path fill-rule="evenodd" clip-rule="evenodd" d="M105.971 52.8971V55.7135H99.4927V30.4657H105.971V52.8971Z" fill="#ED1C24"/>
</svg>
